<svg fill="none" viewBox="0 0 96.0796 96" xmlns="http://www.w3.org/2000/svg">
  <g fill="#ff3c00">
    <path d="m10.1914 2.7993 83.0867 83.0179c1.0337 1.0328 2.8016.3012 2.8016-1.1599v-32.8006c0-.9058-.7342-1.6394-1.6408-1.6394h-12.4596c-.4348-.002-.8511-.1762-1.1588-.4836l-12.9006-12.8879c-.5168-.5164-.1517-1.3996.5805-1.3996h25.9406c.9065 0 1.6408-.7337 1.6408-1.6394v-8.5373c0-.9058-.7343-1.6394-1.6408-1.6394h-39.0689c-.4348 0-.8532-.1721-1.1608-.4795l-9.9431-9.9349c-.5169-.5164-.1518-1.3996.5804-1.3996h49.5903c.9066 0 1.6408-.7337 1.6408-1.6394v-8.53729c0-.905772-.7342-1.63941-1.6408-1.63941h-83.0867c-1.46232 0-2.19452 1.76647-1.1608 2.7993z"/>
    <path d="m0 11.3426v83.0178c0 .9058.734246 1.6395 1.64077 1.6395h14.45523c.9065 0 1.6408-.7337 1.6408-1.6395v-43.6432c0-.7296.8839-1.0964 1.4008-.58l45.4207 45.3831c.3076.3074.726.4796 1.1608.4796h19.0084c1.4623 0 2.1945-1.7665 1.1608-2.7993l-83.08668-83.0179c-1.03369-1.03287-2.80162-.30128-2.80162 1.1599z"/>
  </g>
</svg>
